# xmcd CD database file
#
# Track frame offsets:
#	150
#	16907
#	41413
#	60605
#	71671
#	86082
#	102688
#	118211
#	126998
#	143105
#	151796
#	166689
#	178366
#	201627
#	214918
#	229492
#	241045
#	258647
#	272800
#	294690
#	306193
#
# Disc length: 4227 seconds
#
# Revision: 2
# Processed by: cddbd v1.5.2PL0 Copyright (c) Steve Scherf et al.
# Submitted via: CDex 1.51
#
DISCID=48108115
DTITLE=Jean-Jacques Milteau - Blowin in the past - CD2
DYEAR=2012
DGENRE=Blues
TTITLE0=KnockOdile
TTITLE1=First Trip
TTITLE2=Tommy
TTITLE3=Special 20
TTITLE4=Antoine and Stéphanie
TTITLE5=Blues Harp
TTITLE6=Wanted
TTITLE7=Old Standby
TTITLE8=Woodbound
TTITLE9=Louisiana Vamper
TTITLE10=Fingertips
TTITLE11=The Hook
TTITLE12=U
TTITLE13=True Duke
TTITLE14=Going Back to N.Y.C.
TTITLE15=16/64
TTITLE16=No More
TTITLE17=Twelve Bars
TTITLE18=Cheaters
TTITLE19=AA Booghee
TTITLE20=Madison Breakdown
EXTD=YEAR: 2012
EXTT0=
EXTT1=
EXTT2=
EXTT3=
EXTT4=
EXTT5=
EXTT6=
EXTT7=
EXTT8=
EXTT9=
EXTT10=
EXTT11=
EXTT12=
EXTT13=
EXTT14=
EXTT15=
EXTT16=
EXTT17=
EXTT18=
EXTT19=
EXTT20=
PLAYORDER=
